PathFileType	4	(X/Y/Z)	Patient4_TMGait_0pt7_01_right_28.trc.trc
DataRate	CameraRate	NumFrames	NumMarkers	Units	OrigDataRate	OrigDataStartFrame	OrigNumFrames
85.889570552147	85.889570552147	6	33	mm	85.889570552147	36	       141
Frame#	Time	Sacral			L.Shoulder			Chest			R.Shoulder			Neck			R.ASIS			L.ASIS			R.Thigh.Superior			R.Thigh.Lateral			R.Thigh.Inferior			R.Patella			L.Thigh.Superior			L.Thigh.Lateral			L.Thigh.Inferior			L.Patella			L.Shank.Superior			L.Shank.Lateral			L.Shank.Inferior			R.Shank.Superior			R.Shank.Lateral			R.Shank.Inferior			R.Heel			R.Midfoot.Superior			R.Midfoot.Lateral			R.Toe			L.Heel			L.Midfoot.Lateral			L.Midfoot.Superior			L.Toe			L.Elbow			L.Wrist			R.Elbow			R.Wrist			
		X1	Y1	Z1	X2	Y2	Z2	X3	Y3	Z3	X4	Y4	Z4	X5	Y5	Z5	X6	Y6	Z6	X7	Y7	Z7	X8	Y8	Z8	X9	Y9	Z9	X10	Y10	Z10	X11	Y11	Z11	X12	Y12	Z12	X13	Y13	Z13	X14	Y14	Z14	X15	Y15	Z15	X16	Y16	Z16	X17	Y17	Z17	X18	Y18	Z18	X19	Y19	Z19	X20	Y20	Z20	X21	Y21	Z21	X22	Y22	Z22	X23	Y23	Z23	X24	Y24	Z24	X25	Y25	Z25	X26	Y26	Z26	X27	Y27	Z27	X28	Y28	Z28	X29	Y29	Z29	X30	Y30	Z30	X31	Y31	Z31	X32	Y32	Z32	X33	Y33	Z33	

36	32.107500000000	754.753190164753	994.051188282926	498.188491696920	947.939082148916	1424.840847579512	318.768641275587	1037.147231971338	1354.342201910139	485.448398151611	939.719781569784	1435.158451549132	651.689627574125	942.506819783976	1484.695564036607	471.344682734071	978.485355421548	937.407433704037	629.179368341926	979.450793917640	954.172569210670	353.159391402926	1048.045472558037	751.749939707265	604.304164646353	977.914246025340	632.460527442188	659.359403056368	1069.031035327824	591.550462463484	586.671729868561	1082.857678672792	501.763282930831	594.151550577933	1002.922240620133	730.632473250413	376.835659905051	907.684837383119	622.173733552355	307.722699784042	984.440260482176	531.472347004894	368.222579677720	971.047450763142	447.453437794390	365.722646081989	902.400745437047	392.007432018497	356.859032206582	764.920367155378	347.477378007609	300.930367997746	749.113664453096	220.211901118361	359.874037854438	1059.262492212764	410.641934811512	599.268857538021	990.229225286254	302.089063270858	656.004634118758	1045.233970469275	210.890613855671	597.391496718803	925.100268298237	42.000642758974	556.994965633389	1091.144177276074	99.220235053381	604.653519154597	1003.154963567461	36.494170662413	637.121359075912	1210.470126737631	51.853298226303	640.883987954313	558.827671924259	145.738621922204	390.520242123557	622.038735411574	103.616540643120	313.723377330540	723.710326745048	121.289181982952	338.807712888674	811.258621901998	31.579323133061	316.506441250520	922.390296220604	1082.526351139774	192.256237783748	1166.348735716962	1014.832225769325	227.694304536458	798.242681842057	1125.922863277023	774.092682186235	785.876789106535	866.300390465623	810.694646223203	
37	32.119142857143	754.725254527474	995.700410721718	501.423021734675	947.704806558144	1426.343207237616	321.408354604759	1038.038820077657	1355.428113133030	487.506459717417	942.132699534392	1436.256101304373	654.368562342940	943.496062606775	1485.895501521827	474.166631995224	978.774833644659	938.923111562888	631.522989371236	978.817352702099	954.946661179010	355.389271164006	1045.767391975669	750.870084170956	607.626682921843	973.452659120713	632.632153918436	661.454728434320	1064.103250928289	590.778260249343	588.656837278396	1076.456928280794	501.071000196688	595.479703879558	1008.101564143580	733.615022882126	379.743110534315	917.846747531128	622.418457442656	309.729850677303	997.696460977460	533.684496904730	370.267255948925	985.648808876355	448.348479033272	367.053603647823	914.899340409286	393.077208228236	358.309150122285	775.570889495815	354.019539252256	302.650679093918	755.305315268751	227.117860049845	360.874489149035	1052.497125460076	410.267807972557	600.614751604921	982.889012450993	301.883974271747	656.961349232277	1037.487773599328	210.639974358163	598.093086425219	916.882883269520	41.884151350342	557.151374758451	1082.813796843430	99.203642429415	604.931716424047	994.907430537182	36.398196756374	637.331019528729	1202.195693898802	52.000394592733	641.083898296643	562.166045422077	162.802414354474	391.684546142835	622.656705211737	116.941856911894	314.593244080756	725.565517465380	127.878830470803	339.513601011170	806.426255968772	31.080470491450	316.673413632781	916.451490192031	1083.871264924573	196.545475296493	1157.980522534904	1006.277508946469	230.940344289170	805.474422502764	1123.676383633458	776.329856165093	800.123811681287	863.340810403985	809.695588417341	
38	32.130785714286	754.576438667759	997.120221391106	504.547858606864	947.223767948251	1427.530484607459	323.909606368847	1038.857353412911	1356.258102952490	489.473827195070	944.547486551071	1437.071208805190	656.945419285806	944.354061978847	1486.873329542267	476.897324084515	978.977009695069	940.183100273721	633.641858951026	977.964407183399	955.504394271535	357.466484083186	1043.339754851476	749.903863119760	610.498163726610	969.204871513145	632.770053335240	663.478641222264	1059.196521758137	589.974118065177	590.393386859554	1070.121744274004	500.346424625566	596.737326799863	1013.183090181947	736.821545175732	382.460751282777	927.982292763190	623.081910194709	311.493652936999	1010.810833858017	536.466127626291	372.104571899505	1000.316751066392	449.906898850197	368.286028567147	927.790149104242	394.646258088726	359.640753939084	786.865576033036	360.650737635780	304.378105007398	762.569240831756	234.182479526008	362.000940885377	1045.808617607934	409.834503026289	601.884863555316	975.685363311323	301.622345501453	657.927361692885	1029.804074309947	210.327584666572	598.727092048965	908.639554446691	41.784187773328	557.278060427082	1074.542500547500	99.101626699616	605.167648375792	986.637399205718	36.286772746176	637.504060455393	1193.937012279778	51.939474020889	641.218192100068	567.208188272377	179.232015745523	393.149437471051	625.057012660388	130.201388280018	315.684072663496	728.869267079938	134.898817942079	340.458082029275	803.405674376641	31.160526617156	316.867175938053	910.184827989888	1084.993425920951	200.640573148276	1148.767450929563	997.182889598168	233.927128663038	812.922932823111	1121.287481270218	778.720759795848	815.318673783154	860.445870947861	808.817727315058	
39	32.142428571429	754.334224087505	998.288474584949	507.552812634472	946.551887418700	1428.394967777372	326.246909698367	1039.599917043338	1356.821659841256	491.324160745343	946.929541097698	1437.601968170957	659.385399425380	945.118569903324	1487.630445938275	479.493215636458	979.100181829208	941.208209428449	635.567149047916	976.898199936501	955.837083816662	359.413473426645	1040.852783766710	748.945021717391	612.882730980648	965.271416312361	632.901176684399	665.442903132305	1054.428064872262	589.169141515555	591.919733896764	1063.977243322540	499.610175834265	597.963708124330	1018.074884818319	740.258838310147	384.980506201588	937.898068979288	624.222935925680	313.009269452939	1023.580598885198	539.846422230485	373.684957559468	1014.858389727761	452.166762234382	369.324646298949	940.902207683880	396.738092908043	360.789998830678	798.620227656764	367.200297038978	306.079571154318	770.904758782361	241.159033609585	363.208606368252	1039.301439296336	409.356609439740	603.096501448917	968.696811306428	301.338410483002	658.922845579712	1022.237288851482	209.970713973689	599.308424786772	900.390590840016	41.712334352088	557.395629720904	1066.346897961549	98.937089845284	605.373376982611	978.367222787404	36.178010319928	637.657524544666	1185.713798941632	51.700023033297	641.305976852033	573.936037578193	194.309020266963	394.886155309642	629.369295263669	142.771473562325	316.982827371573	733.785793590109	142.043939939257	341.587183985038	802.690721875163	31.944403086798	317.090877450045	903.625237838666	1085.869387437561	204.568362321079	1138.711051881820	987.625798265455	236.638677303864	820.645614310302	1118.736775281446	781.248017214568	831.404807932525	857.655112257287	808.021532890746	
40	32.154071428571	754.027758588969	999.208103855684	510.439351068172	945.742741483769	1428.958593283360	328.404999131765	1040.259527451138	1357.134130317878	493.029306275573	949.243594487621	1437.875119547834	661.660323335284	945.825970173660	1488.185863704113	481.915622954251	979.155894027372	942.036394258401	637.334282294694	975.631092140341	955.960948446369	361.255189653001	1038.379170676334	748.062930477517	614.812396584656	961.667169337818	633.036643567220	667.345931112446	1049.866907410361	588.382508407042	593.293917776482	1058.095287028908	498.876438234200	599.185252195901	1022.709122000491	743.927682122216	387.298501631946	947.438432495467	625.871398063802	314.278121659294	1035.854273477043	543.827795530246	374.963309820155	1029.116558998071	455.143116558211	370.086269524059	954.099962784040	399.349349871337	361.703725400082	810.686119850849	373.472210275195	307.713462252818	780.326542938320	247.781515338053	364.446697501330	1033.030306317917	408.848275427598	604.266612331253	961.940553764423	301.061614450347	659.940515851339	1014.811349013749	209.586956681935	599.853469238596	892.151059091060	41.674586503369	557.517688884739	1058.231889966037	98.733244483710	605.560136428456	970.113640858249	36.085341886480	637.803294373591	1177.537463545601	51.319024237404	641.367750477005	582.309900182169	207.370196609520	396.846163675832	635.687408943998	154.042111222142	318.459004930773	740.470650456585	148.964778451301	342.834893450672	804.738167898966	33.465271460338	317.343369958763	896.809735572548	1086.513742368426	208.362859757186	1127.813677561238	977.687943220936	239.066580258343	828.712138040178	1116.027676787408	783.882636707193	848.344783835227	855.028760352034	807.252787693674	
41	32.165714285714	753.682271389182	999.905011105897	513.214391559905	944.842606413890	1429.266486724755	330.380546958861	1040.828017008873	1357.231424882592	494.564105702316	951.459744129466	1437.938310323123	663.752852732161	946.506754884793	1488.570820832584	484.136028675742	979.157772458029	942.713884188676	638.975677429530	974.185069876157	955.915921206317	363.012434955032	1035.966766353217	747.297197779944	616.370620543310	958.339455800057	633.176845756037	669.175079291620	1045.534289432722	587.623431249995	594.579592845937	1052.495116705766	498.154026643716	600.416272467315	1027.040109470095	747.819496004770	389.412217337367	956.487554938119	628.023908837371	315.309244425559	1047.527822114863	548.383681439089	375.907874037599	1042.968336992057	458.825412806566	370.516854546272	967.281388026318	402.448368655298	362.350994798086	822.953705581827	379.258132098353	309.236279951691	790.855735372984	253.785720304295	365.665377894449	1027.003197613662	408.322192892314	605.407699262535	955.385862410601	300.814902161160	660.954690369085	1007.523139977505	209.192619579960	600.376487269493	883.929082655008	41.672049795885	557.650692413094	1050.191856423131	98.510874312362	605.736651471892	961.886475290340	36.016776499722	637.947607306170	1169.410700387565	50.835448061106	641.421667705197	592.279871891719	217.868130408119	398.964875359266	644.065147469926	163.476299549998	320.065889754568	749.052391394101	155.300881468352	344.130223553289	809.911138964049	35.638144884373	317.614549873597	889.780598557256	1086.973113896045	212.058558594626	1116.078468814073	967.456579282314	241.208826988788	837.190198511589	1113.187810903112	786.584042987846	866.113381847122	852.649090513802	806.447239690290	
